<?xml version="1.0" encoding="utf-8"?>
<!-- Generator: Adobe Illustrator 17.1.0, SVG Export Plug-In . SVG Version: 6.00 Build 0)  -->
<!DOCTYPE svg PUBLIC "-//W3C//DTD SVG 1.1//EN" "http://www.w3.org/Graphics/SVG/1.1/DTD/svg11.dtd">
<svg version="1.1" id="Layer_1" xmlns="http://www.w3.org/2000/svg" xmlns:xlink="http://www.w3.org/1999/xlink" x="0px" y="0px"
	 viewBox="0 0 30 30" enable-background="new 0 0 30 30" xml:space="preserve">
<g>
	<path fill="#FFFFFF" d="M4.6,29.5c-2.3,0-4.1-1.8-4.1-4.1V4.6c0-2.3,1.8-4.1,4.1-4.1h20.7c2.3,0,4.1,1.8,4.1,4.1v20.7
		c0,2.3-1.8,4.1-4.1,4.1H4.6z"/>
	<path d="M25.4,1c2,0,3.6,1.6,3.6,3.6v20.7c0,2-1.6,3.6-3.6,3.6H4.6c-2,0-3.6-1.6-3.6-3.6V4.6C1,2.6,2.6,1,4.6,1H25.4 M25.4,0H4.6
		C2.1,0,0,2.1,0,4.6v20.7C0,27.9,2.1,30,4.6,30h20.7c2.5,0,4.6-2.1,4.6-4.6V4.6C30,2.1,27.9,0,25.4,0L25.4,0z"/>
</g>
<rect x="8.5" y="8.5" width="3.1" height="3.1"/>
<rect x="13.4" y="8.5" width="3.1" height="3.1"/>
<rect x="18.3" y="8.5" width="3.1" height="3.1"/>
<rect x="8.5" y="13.5" width="3.1" height="3.1"/>
<rect x="13.4" y="13.5" width="3.1" height="3.1"/>
<rect x="18.3" y="13.5" width="3.1" height="3.1"/>
<rect x="8.5" y="18.3" width="3.1" height="3.1"/>
<rect x="13.4" y="18.3" width="3.1" height="3.1"/>
<rect x="18.3" y="18.3" width="3.1" height="3.1"/>
</svg>
